<?xml version="1.0" encoding="UTF-8" standalone="no"?>
<!DOCTYPE svg PUBLIC "-//W3C//DTD SVG 1.1//EN" "http://www.w3.org/Graphics/SVG/1.1/DTD/svg11.dtd">
<svg width="100%" height="100%" viewBox="0 0 2732 2048" version="1.1" xmlns="http://www.w3.org/2000/svg" xmlns:xlink="http://www.w3.org/1999/xlink" xml:space="preserve" xmlns:serif="http://www.serif.com/" style="fill-rule:evenodd;clip-rule:evenodd;stroke-linejoin:round;stroke-miterlimit:2;">
    <g transform="matrix(2.70717,0,0,2.70717,-3142.8,-458.835)">
        <g transform="matrix(5.85877,0,0,5.85877,1150.96,-990.53)">
            <g transform="matrix(1,0,0,1,14.9996,-14.9996)">
                <path d="M106.716,226.651C106.716,226.651 106.463,230.32 105.511,231.059C105.511,231.059 104.386,229.889 102.656,230.539C101.485,230.975 100.689,231.733 100.294,232.174C100.111,232.385 100.013,232.526 100.013,232.526C100.013,232.526 98.282,233.004 96.897,230.367C95.513,227.725 94.433,226.252 94.128,224.002C94.089,223.709 94.069,223.422 94.069,223.141C94.072,221.295 94.876,219.852 95.513,219.289C96.25,218.637 96.897,218.811 98.24,219.156C98.559,219.238 98.946,219.301 99.366,219.34L99.372,219.344C100.712,219.471 102.369,219.367 103.129,218.942C104.132,218.377 105.678,217.623 105.775,218.278L105.792,218.471C105.816,218.906 105.802,219.752 105.827,220.672C105.855,221.756 105.931,222.947 106.176,223.692C106.342,224.688 106.543,225.723 106.716,226.651Z" style="fill:rgb(241,181,171);fill-rule:nonzero;"/>
            </g>
            <g transform="matrix(1,0,0,1,14.9996,-14.9996)">
                <path d="M100.294,232.174C100.111,232.385 100.013,232.526 100.013,232.526C100.013,232.526 98.282,233.004 96.897,230.367C95.513,227.725 94.433,226.252 94.128,224.002C94.089,223.709 94.069,223.422 94.069,223.141C94.845,224.893 96.079,227.154 97.16,228.936C97.88,230.131 98.86,231.35 100.294,232.174Z" style="fill:rgb(245,148,141);fill-rule:nonzero;"/>
            </g>
            <g transform="matrix(1,0,0,1,14.9996,-14.9996)">
                <path d="M105.792,218.471C104.951,219.416 103.005,220.651 99.372,219.344C100.712,219.471 102.369,219.367 103.129,218.942C104.132,218.377 105.678,217.623 105.775,218.278L105.792,218.471Z" style="fill:rgb(245,148,141);fill-rule:nonzero;"/>
            </g>
            <g transform="matrix(1,0,0,1,14.9996,-14.9996)">
                <path d="M54.191,275.252C53.235,278.541 50.814,285.293 50.814,285.293C50.814,285.293 50.947,288.125 50.681,289.147C50.649,289.281 50.608,289.383 50.557,289.447C50.12,289.965 49.885,289.317 49.885,289.317C49.885,289.317 49.255,293.127 48.521,292.736C47.786,292.344 48.606,286.676 48.866,285.637C49.126,284.6 49.905,277.069 50.078,274.168C50.251,271.27 51.116,263.133 51.55,262.183C51.55,262.183 51.958,262.285 53.689,262.633C54.265,262.746 54.753,262.881 55.151,263.014C55.958,263.272 56.39,263.51 56.39,263.51C56.217,264.764 55.14,271.963 54.191,275.252Z" style="fill:rgb(241,181,171);fill-rule:nonzero;"/>
            </g>
            <g transform="matrix(1,0,0,1,14.9996,-14.9996)">
                <path d="M54.191,275.252C53.235,278.541 50.814,285.293 50.814,285.293C50.814,285.293 50.947,288.125 50.681,289.147C50.694,287.651 50.567,285.17 50.599,285.074C50.64,284.945 53.628,274.776 54.064,271.66C54.472,268.736 54.722,265.543 55.151,263.014C55.958,263.272 56.39,263.51 56.39,263.51C56.217,264.764 55.14,271.963 54.191,275.252Z" style="fill:rgb(245,148,141);fill-rule:nonzero;"/>
            </g>
            <g transform="matrix(1,0,0,1,14.9996,-14.9996)">
                <path d="M117.843,336.61L116.538,337.395L116.386,337.485L116.244,337.57C116.244,337.57 115.982,336.889 115.554,335.754C113.835,331.172 109.441,319.238 108.887,315.317C108.195,310.424 110.273,307.354 110.273,307.354C110.273,307.354 108.324,301.942 107.156,296.793C106.418,293.543 104.871,288.108 103.83,284.557L103.812,284.496C103.559,283.631 103.337,282.891 103.167,282.311L103.167,282.309C102.932,281.518 102.791,281.051 102.791,281.051L102.724,281.086L102.716,281.09L102.71,281.094L102.471,281.217L101.9,281.516L101.876,281.598C98.731,292.86 98.729,292.795 97.548,298.438C96.423,303.805 94.692,308.651 93.481,313.584C92.86,316.111 91.396,322.174 90.118,327.485C88.903,332.537 87.855,336.91 87.855,336.91L87.044,337.037L86.871,337.067L85.908,337.221C85.908,337.221 83.181,318.953 84.046,314.363C84.911,309.778 88.114,305.795 88.114,305.795C88.114,305.795 87.421,290.779 87.595,285.369C87.628,284.303 87.708,283.154 87.819,281.992L87.841,281.764C88.142,278.604 88.637,275.404 88.925,273.666L88.955,273.49C89.077,272.766 89.152,272.342 89.152,272.342C89.152,272.342 89.388,272.377 89.811,272.442C90.71,272.57 92.459,272.797 94.612,272.969L94.788,272.983C96.617,273.119 98.719,273.213 100.834,273.164C101.828,273.145 102.822,273.065 103.791,272.947L103.984,272.922C105.865,272.686 107.637,272.305 109.087,271.944L109.264,271.899C111.332,271.367 112.695,270.873 112.695,270.873C112.695,270.873 112.767,271.363 112.882,272.151L112.91,272.322C113.152,273.934 113.554,276.606 113.91,278.926C113.924,279.02 113.941,279.113 113.956,279.207C114.093,280.111 114.229,280.959 114.339,281.649C114.901,285.11 116.417,300.17 116.763,305.19C117.109,310.209 117.843,336.61 117.843,336.61Z" style="fill:rgb(29,78,161);fill-rule:nonzero;"/>
            </g>
            <g transform="matrix(1,0,0,1,14.9996,-14.9996)">
                <path d="M90.118,327.485C88.903,332.537 87.855,336.91 87.855,336.91L87.044,337.037L86.871,337.067L85.908,337.221C85.908,337.221 83.181,318.953 84.046,314.363C84.911,309.778 88.114,305.795 88.114,305.795C88.114,305.795 87.421,290.779 87.595,285.369C87.628,284.303 87.708,283.154 87.819,281.992L87.841,281.764C88.142,278.604 88.637,275.404 88.925,273.666L88.955,273.49C89.077,272.766 89.152,272.342 89.152,272.342C89.152,272.342 89.388,272.377 89.811,272.442C89.661,276.873 89.544,286.715 89.689,295.842C89.845,305.361 89.433,308.307 89.433,308.307C89.433,308.307 85.88,318.959 90.118,327.485Z" style="fill:rgb(29,66,127);fill-rule:nonzero;"/>
            </g>
            <g transform="matrix(1,0,0,1,14.9996,-14.9996)">
                <path d="M102.71,281.049L102.724,281.086L102.716,281.09L102.71,281.049Z" style="fill:rgb(137,46,40);fill-rule:nonzero;"/>
            </g>
            <g transform="matrix(1,0,0,1,14.9996,-14.9996)">
                <path d="M115.554,335.754C113.835,331.172 109.441,319.238 108.887,315.317C108.195,310.424 110.273,307.354 110.273,307.354C110.273,307.354 108.324,301.942 107.156,296.793C106.418,293.543 104.871,288.108 103.83,284.557L103.812,284.496C103.559,283.631 103.337,282.891 103.167,282.311L112.035,306.768C112.035,306.768 111.657,310.209 111.744,317.348C111.805,322.393 114.169,331.082 115.554,335.754Z" style="fill:rgb(29,66,127);fill-rule:nonzero;"/>
            </g>
            <g transform="matrix(1,0,0,1,14.9996,-14.9996)">
                <path d="M76.564,312.295C77.471,315.672 77.298,320.387 76.259,324.242C75.221,328.094 73.663,335.018 73.663,335.018L73.556,335.072C73.455,335.125 73.358,335.172 73.271,335.207L73.254,335.215L73.081,335.274C72.271,335.529 72.064,335.059 72.064,335.059C72.064,335.059 70.894,328.266 70.374,322.727C69.854,317.188 68.341,308.879 67.822,302.344C67.355,296.483 65.952,285.781 65.665,283.641C65.634,283.391 65.616,283.26 65.616,283.26C65.616,283.26 65.589,283.332 65.54,283.463L65.54,283.467C65.142,284.565 63.256,289.772 62.022,293.127C60.638,296.889 57.391,305.373 57.391,305.373C57.391,305.373 58.948,308.27 59.859,311.69C60.771,315.11 60.16,319.135 59.296,322.901C58.429,326.664 56.57,335.406 56.57,335.406L56.407,335.475L56.224,335.533L56.161,335.549C55.257,335.748 54.538,335.19 54.538,335.19L54.521,335.059C54.424,334.139 53.797,328.309 53.281,323.463C52.716,318.182 51.204,306.713 51.204,306.713C51.204,306.713 51.94,298.403 52.808,292.762C52.993,291.528 53.291,289.963 53.645,288.262C54.095,286.084 54.634,283.688 55.164,281.477C55.431,280.356 55.698,279.281 55.947,278.313C55.972,278.201 55.999,278.094 56.026,277.986C56.355,276.703 56.65,275.611 56.875,274.854L56.927,274.69C57.075,274.194 57.193,273.86 57.263,273.738C57.263,273.738 58.713,274.797 63.64,274.414C69.581,273.953 71.932,271.143 71.932,271.143C71.932,271.143 71.903,271.059 71.856,270.918L71.89,270.897C71.89,270.897 72.333,271.436 72.966,272.283L73.07,272.418C73.652,273.199 74.372,274.207 75.055,275.279L75.151,275.432C75.778,276.418 76.362,277.449 76.778,278.406C78.208,281.688 76.522,289.447 75.913,293.647C75.31,297.842 73.836,305.805 73.836,305.805C73.836,305.805 75.657,308.922 76.564,312.295Z" style="fill:rgb(38,59,127);fill-rule:nonzero;"/>
            </g>
            <g transform="matrix(1,0,0,1,14.9996,-14.9996)">
                <path d="M76.564,312.295C77.471,315.672 77.298,320.387 76.259,324.242C75.221,328.094 73.663,335.018 73.663,335.018L73.556,335.072C73.455,335.125 73.358,335.172 73.271,335.207L73.254,335.215C73.735,332.113 75.183,322.129 74.746,316.192C74.227,309.094 72.409,307.969 72.409,307.969L72.146,308.93C72.214,308.672 72.326,308.252 72.495,307.623C73.447,304.074 74.746,291.178 74.746,291.178C74.746,291.178 70.591,283.043 67.59,280.012C64.585,276.983 61.327,278.178 58.972,280.705C57.376,282.418 55.092,286.065 53.645,288.262C54.095,286.084 54.634,283.688 55.164,281.477C55.431,280.356 55.698,279.281 55.947,278.313C55.972,278.201 55.999,278.094 56.026,277.986C56.355,276.703 56.65,275.611 56.875,274.854L56.927,274.69C57.075,274.194 57.193,273.86 57.263,273.738C57.263,273.738 58.713,274.797 63.64,274.414C69.581,273.953 71.932,271.143 71.932,271.143C71.932,271.143 71.903,271.059 71.856,270.918L71.89,270.897C71.89,270.897 72.333,271.436 72.966,272.283L73.07,272.418C73.652,273.199 74.372,274.207 75.055,275.279L75.151,275.432C75.778,276.418 76.362,277.449 76.778,278.406C78.208,281.688 76.522,289.447 75.913,293.647C75.31,297.842 73.836,305.805 73.836,305.805C73.836,305.805 75.657,308.922 76.564,312.295Z" style="fill:rgb(33,42,96);fill-rule:nonzero;"/>
            </g>
            <g transform="matrix(1,0,0,1,14.9996,-14.9996)">
                <path d="M62.022,293.127C60.638,296.889 57.391,305.373 57.391,305.373C57.391,305.373 58.948,308.27 59.859,311.69C60.771,315.11 60.16,319.135 59.296,322.901C58.429,326.664 56.57,335.406 56.57,335.406L56.407,335.475L56.224,335.533L56.161,335.549C56.923,332.065 58.595,324.434 58.433,320.084C58.215,314.373 55.947,305.805 55.947,305.805C55.947,305.805 60.542,294.363 62.538,288.92C64.536,283.475 65.54,283.467 65.54,283.467C65.142,284.565 63.256,289.772 62.022,293.127Z" style="fill:rgb(33,42,96);fill-rule:nonzero;"/>
            </g>
            <g transform="matrix(1,0,0,1,14.9996,-14.9996)">
                <path d="M70.993,258.75L70.993,258.746L70.939,258.636C70.939,258.815 70.913,258.983 70.872,259.141L70.855,259.196C70.72,259.722 70.408,260.125 70.179,260.369L70.142,260.407C69.999,260.547 69.899,260.623 69.899,260.623L69.899,260.653C69.905,260.908 69.976,262.922 70.419,265.471C70.817,267.76 71.609,270.19 71.856,270.918C71.903,271.059 71.932,271.143 71.932,271.143C71.932,271.143 71.529,271.621 70.644,272.215C69.38,273.059 67.13,274.143 63.64,274.414C62.886,274.473 62.21,274.496 61.607,274.496C58.302,274.496 57.263,273.738 57.263,273.738C57.612,270.903 56.636,264.053 56.429,262.649C56.41,262.532 56.397,262.451 56.394,262.416L56.394,262.414L56.39,262.397L56.39,263.51L56.362,263.498C56.058,263.342 55.667,263.195 55.237,263.057C53.642,262.545 51.55,262.183 51.55,262.183C51.55,262.183 51.585,261.869 51.65,261.361L51.671,261.188C51.871,259.594 52.305,256.436 52.808,254.434C53.499,251.664 54.274,247.035 55.618,246.17C56.901,245.342 58.89,244.654 60.663,244.434L60.888,244.412L60.904,244.408C62.047,244.293 63.071,244.238 63.992,244.223L64.177,244.221C68.331,244.172 70.272,244.985 70.935,245.346L71.083,245.434L71.155,245.477C71.544,245.738 72.495,247.121 73.874,249.76C74.839,251.615 75.882,254.711 76.418,256.387L76.474,256.559L76.474,256.563C76.667,257.17 76.778,257.551 76.778,257.551C74.726,257.653 73.067,258.386 72.156,258.938C71.667,259.236 71.397,259.485 71.397,259.559L70.993,258.75Z" style="fill:rgb(247,151,56);fill-rule:nonzero;"/>
            </g>
            <g transform="matrix(1,0,0,1,14.9996,-14.9996)">
                <path d="M56.362,263.498C56.058,263.342 55.667,263.195 55.237,263.057L55.473,261.547C55.473,261.547 56.308,261.782 56.349,262.647C56.358,262.865 56.362,263.17 56.362,263.498Z" style="fill:rgb(228,125,37);fill-rule:nonzero;"/>
            </g>
            <g transform="matrix(1,0,0,1,14.9996,-14.9996)">
                <path d="M71.856,270.918C71.903,271.059 71.932,271.143 71.932,271.143C71.932,271.143 71.529,271.621 70.644,272.215C70.155,270.846 69.446,268.498 69.206,265.932C68.832,261.895 68.579,261.184 68.579,261.184C68.579,261.184 70.755,258.848 70.146,257.226L72.156,258.938C71.667,259.236 71.397,259.485 71.397,259.559L70.993,258.75L70.993,258.746L70.939,258.636C70.939,258.815 70.913,258.983 70.872,259.141L70.855,259.196C70.72,259.722 70.408,260.125 70.179,260.369L70.142,260.407C69.999,260.547 69.899,260.623 69.899,260.623L69.899,260.653C69.905,260.908 69.976,262.922 70.419,265.471C70.817,267.76 71.609,270.19 71.856,270.918Z" style="fill:rgb(228,125,37);fill-rule:nonzero;"/>
            </g>
            <g transform="matrix(1,0,0,1,14.9996,-14.9996)">
                <path d="M120.018,252.125C119.998,252.119 119.896,252.088 119.73,252.039L119.621,252.004C119.375,251.936 119.025,251.846 118.601,251.758L118.425,251.729C117.744,251.592 116.898,251.486 115.984,251.486C115.292,251.486 114.592,251.52 113.956,251.565C112.564,251.668 111.484,251.83 111.484,251.83L111.494,251.914L111.498,251.914L111.816,254.127L111.83,254.211L111.744,254.213C111.529,254.217 110.941,254.221 110.113,254.229C108.724,254.231 106.671,254.236 104.605,254.211C100.97,254.164 97.722,253.774 96.814,254.231C96.323,254.473 95.267,255.004 94.35,255.5C93.663,255.873 93.058,256.229 92.822,256.44L92.743,256.522C92.636,256.67 92.444,257.063 92.331,257.511L92.331,257.515C92.13,258.315 92.189,259.289 93.435,259.319C93.546,259.319 93.657,259.319 93.774,259.312L93.788,259.312C94.155,259.3 94.543,259.254 94.924,259.196L94.969,259.184C96.257,258.972 97.489,258.558 97.888,258.42L97.895,258.416L98.022,258.373L98.141,258.375L98.144,258.375C98.358,258.381 98.833,258.408 99.411,258.506C99.497,258.522 99.588,258.535 99.681,258.555C100.138,258.645 100.64,258.779 101.123,258.977C101.921,259.308 104.189,260.481 106.609,261.615C107.8,262.176 109.029,262.727 110.137,263.162C110.888,263.457 111.584,263.699 112.175,263.858C112.449,263.932 112.726,264.008 113.003,264.084C112.843,267.629 112.695,270.873 112.695,270.873C112.695,270.873 111.982,271.131 110.802,271.475C108.572,272.127 104.685,273.078 100.834,273.164C96.114,273.268 91.458,272.678 89.794,272.438C89.381,272.377 89.152,272.342 89.152,272.342L88.588,267.279L88.931,264.756L88.931,264.752C89.003,264.215 89.091,263.569 89.196,262.779C89.8,258.279 92.243,254.037 92.243,254.037C92.243,254.037 91.226,253.774 88.026,254.428C86.681,254.703 85.476,255.033 84.538,255.33C83.242,255.736 82.446,256.069 82.446,256.069C82.321,255.61 82.204,255.135 82.093,254.643L82.056,254.471C81.03,249.861 80.622,244.266 81.665,242.567L81.678,242.549L81.682,242.543C82.855,240.645 85.32,238.67 90.019,237.246C91.974,236.649 93.483,236.18 94.716,235.813C96.457,235.297 97.646,234.992 98.76,234.867L102.568,235.154C102.568,235.154 104.424,235.83 106.624,236.653C108.455,237.336 110.525,238.125 111.958,238.717C115.119,240.014 116.632,242.047 117.542,244.516C118.162,246.192 119.083,249.1 119.609,250.797L119.671,251L119.671,251.004C119.802,251.416 119.9,251.736 119.958,251.932C119.994,252.049 120.014,252.119 120.018,252.125Z" style="fill:rgb(247,151,56);fill-rule:nonzero;"/>
            </g>
            <g transform="matrix(1,0,0,1,14.9996,-14.9996)">
                <path d="M106.624,236.653C100.742,239.297 96.308,236.92 94.716,235.813C96.457,235.297 97.646,234.992 98.76,234.867L102.568,235.154C102.568,235.154 104.424,235.83 106.624,236.653Z" style="fill:rgb(228,125,37);fill-rule:nonzero;"/>
            </g>
            <g transform="matrix(1,0,0,1,14.9996,-14.9996)">
                <path d="M84.538,255.33C83.242,255.736 82.446,256.069 82.446,256.069C82.321,255.61 82.204,255.135 82.093,254.643L82.056,254.471C81.03,249.861 80.622,244.266 81.665,242.567L81.678,242.549C81.525,245.651 82.894,252.094 84.538,255.33Z" style="fill:rgb(228,125,37);fill-rule:nonzero;"/>
            </g>
            <g transform="matrix(1,0,0,1,14.9996,-14.9996)">
                <path d="M113.003,264.084C112.843,267.629 112.695,270.873 112.695,270.873C112.695,270.873 111.982,271.131 110.802,271.475C111.166,269.252 111.706,265.801 111.744,264.625C111.744,264.625 110.298,264.336 109.175,263.645C109.175,263.645 106.92,266.719 100.501,267.863C94.087,269.012 90.046,268.897 90.046,268.897L89.794,272.438C89.381,272.377 89.152,272.342 89.152,272.342L88.588,267.279L88.931,264.756L88.931,264.752C93.951,264.299 104.58,263.34 104.833,263.346C104.96,263.346 105.715,262.578 106.609,261.615C107.8,262.176 109.029,262.727 110.137,263.162C110.888,263.457 111.584,263.699 112.175,263.858C112.449,263.932 112.726,264.008 113.003,264.084Z" style="fill:rgb(228,125,37);fill-rule:nonzero;"/>
            </g>
            <g transform="matrix(1,0,0,1,14.9996,-14.9996)">
                <path d="M110.113,254.229C110.133,253.287 110.146,252.195 110.144,251C110.126,246.967 110.144,244.344 110.144,244.344L113.956,251.565C112.564,251.668 111.484,251.83 111.484,251.83L111.494,251.914L111.498,251.914L111.816,254.127L111.83,254.211L111.744,254.213C111.529,254.217 110.941,254.221 110.113,254.229Z" style="fill:rgb(228,125,37);fill-rule:nonzero;"/>
            </g>
            <g transform="matrix(1,0,0,1,14.9996,-14.9996)">
                <path d="M91.319,246.233C91.557,246.461 93.999,253.457 94.476,256.1L91.23,258.236L92.655,256.502C92.655,256.502 92.595,254.256 92.243,251.736C91.894,249.219 91.319,246.233 91.319,246.233Z" style="fill:rgb(228,125,37);fill-rule:nonzero;"/>
            </g>
            <g transform="matrix(1,0,0,1,14.9996,-14.9996)">
                <path d="M91.684,278.387C90.946,279.229 90.035,280.037 89.204,280.713C89.72,277.178 90.707,274.494 90.9,274.004C91.784,274.135 92.854,274.266 94.052,274.369C93.511,275.623 92.694,277.24 91.684,278.387ZM113.91,278.926C112.352,277.416 110.857,274.91 109.919,273.156C111.148,272.856 112.163,272.563 112.91,272.322L112.882,272.151C112.127,272.389 111.093,272.697 109.832,273.002C109.607,272.572 109.414,272.195 109.264,271.899L109.087,271.944C109.237,272.24 109.427,272.613 109.652,273.043C107.973,273.445 105.906,273.844 103.569,274.11C103.794,273.461 103.96,272.975 103.984,272.922L103.791,272.947C103.721,273.145 103.573,273.57 103.378,274.131C102.984,274.172 102.583,274.215 102.169,274.248C99.294,274.49 96.564,274.41 94.304,274.221C94.515,273.715 94.679,273.283 94.788,272.983L94.612,272.969C94.498,273.276 94.332,273.707 94.12,274.207C92.902,274.1 91.821,273.965 90.936,273.83L90.817,273.799L90.808,273.813C90.012,273.692 89.381,273.574 88.955,273.49L88.925,273.666C89.351,273.754 89.963,273.863 90.724,273.979C90.413,274.688 89.488,277.457 89.007,280.873C88.581,281.213 88.179,281.516 87.841,281.764L87.819,281.992C88.149,281.752 88.547,281.453 88.976,281.117C88.841,282.137 88.744,283.201 88.72,284.285C88.595,289.608 88.671,306.342 88.679,307.19C88.421,307.492 86.108,310.387 85.403,316.317C84.759,321.721 86.411,333.846 86.871,337.067L87.044,337.037C86.581,333.824 84.933,321.717 85.577,316.338C86.314,310.151 88.802,307.309 88.827,307.281L88.851,307.223C88.849,307.049 88.765,289.723 88.894,284.289C88.921,283.133 89.024,282.014 89.167,280.965C90.046,280.264 91.025,279.401 91.815,278.504C92.85,277.322 93.685,275.656 94.235,274.385C95.544,274.494 97.005,274.567 98.542,274.567C99.722,274.567 100.949,274.526 102.189,274.418C102.568,274.387 102.946,274.35 103.32,274.311C102.994,275.254 102.568,276.502 102.185,277.639L102.237,277.75L102.263,277.754L102.347,277.694C102.611,276.924 103.123,275.408 103.507,274.291C105.906,274.022 108.022,273.611 109.739,273.203C110.708,275.026 112.291,277.688 113.956,279.207C113.941,279.113 113.924,279.02 113.91,278.926Z" style="fill:rgb(166,221,235);fill-rule:nonzero;"/>
            </g>
            <g transform="matrix(1,0,0,1,14.9996,-14.9996)">
                <path d="M116.538,337.395L116.386,337.485C116.359,337.395 116.324,337.297 116.289,337.186C114.111,330.41 112.73,325.611 112.175,322.922C112.006,322.088 111.816,321.268 111.628,320.475C110.715,316.569 109.849,312.881 111.134,307.156L103.83,284.557L103.812,284.496L102.71,281.094L102.708,281.078L102.71,281.049L102.471,281.217L101.949,281.59L101.9,281.606L101.876,281.598L101.828,281.569L101.848,281.445L103.861,280.02L103.982,280.039L103.96,280.158L102.814,280.975L102.873,281.028L111.307,307.125L111.307,307.168C110.027,312.871 110.884,316.545 111.798,320.434C111.982,321.229 112.175,322.053 112.349,322.887C112.896,325.57 114.278,330.367 116.456,337.135C116.486,337.235 116.513,337.322 116.538,337.395Z" style="fill:rgb(166,221,235);fill-rule:nonzero;"/>
            </g>
            <g transform="matrix(1,0,0,1,14.9996,-14.9996)">
                <path d="M25.05,336.584C24.026,336.906 22.153,338.088 21.705,340.945L27.345,340.945C27.345,340.945 27.94,337.926 28.421,336.955L25.05,336.584Z" style="fill:rgb(38,59,127);fill-rule:nonzero;"/>
            </g>
            <g transform="matrix(1,0,0,1,14.9996,-14.9996)">
                <path d="M109.396,262.861C108.787,263.278 102.492,266.709 96.855,267.41C90.929,268.147 87.985,268.231 85.991,265.807C84.005,263.383 82.446,256.069 82.446,256.069C82.446,256.069 82.755,255.651 84.326,255.094C84.95,254.871 85.773,254.627 86.856,254.385C90.665,253.518 92.528,253.819 92.528,253.819C92.565,254.477 92.656,255.539 92.743,256.522C92.442,256.934 91.489,259.276 93.435,259.319C95.384,259.358 98.022,258.373 98.022,258.373C98.022,258.373 99.653,258.375 101.111,258.976L101.125,258.981C102.036,259.358 104.83,260.815 107.592,262.072C108.201,262.351 108.811,262.619 109.396,262.861Z" style="fill:rgb(241,181,171);fill-rule:nonzero;"/>
            </g>
            <g transform="matrix(1,0,0,1,14.9996,-14.9996)">
                <path d="M122.029,261.422C121.988,262.451 121.751,263.307 121.222,263.858C119.436,265.727 116.054,264.901 113.003,264.084C112.726,264.008 112.449,263.932 112.175,263.858C111.394,263.651 110.427,263.295 109.396,262.861C106.156,261.511 102.237,259.442 101.125,258.981L101.123,258.977L101.111,258.976C99.653,258.375 98.022,258.373 98.022,258.373C98.022,258.373 95.384,259.358 93.435,259.319C92.923,259.308 92.612,259.133 92.435,258.881C91.946,258.17 92.521,256.826 92.743,256.522C93.047,256.111 95.903,254.684 96.814,254.231C97.722,253.774 100.97,254.164 104.605,254.211C108.24,254.254 111.83,254.211 111.83,254.211L111.812,254.088L111.812,254.08L111.484,251.83C111.484,251.83 112.453,251.686 113.734,251.584C114.426,251.528 115.208,251.486 115.984,251.486C118.128,251.486 119.917,252.094 120.018,252.125L120.018,252.129C120.924,254.916 122.136,258.756 122.029,261.422Z" style="fill:rgb(241,181,171);fill-rule:nonzero;"/>
            </g>
            <g transform="matrix(1,0,0,1,14.9996,-14.9996)">
                <path d="M54.536,335.19L54.522,335.059C54.118,335.055 53.684,335.09 53.237,335.19C51.507,335.58 48.694,338.031 48.694,338.031L56.57,338.045C56.57,338.045 56.511,335.686 56.57,335.406C55.487,335.926 54.536,335.19 54.536,335.19Z" style="fill:rgb(214,78,39);fill-rule:nonzero;"/>
            </g>
            <g transform="matrix(1,0,0,1,14.9996,-14.9996)">
                <path d="M72.064,335.059L70.808,338.436C70.808,338.436 72.754,338.524 74.699,338.453C74.699,338.453 74.227,336.36 73.665,335.018L73.554,335.074C72.351,335.707 72.064,335.059 72.064,335.059Z" style="fill:rgb(214,78,39);fill-rule:nonzero;"/>
            </g>
            <g transform="matrix(1,0,0,1,14.9996,-14.9996)">
                <path d="M92.052,223.485C91.2,223.908 91.692,227.983 94.476,227.529C94.046,226.01 93.306,224.606 92.689,223.496C92.493,223.397 92.277,223.371 92.052,223.485Z" style="fill:rgb(241,181,171);fill-rule:nonzero;"/>
            </g>
            <g transform="matrix(1,0,0,1,14.9996,-14.9996)">
                <path d="M95.774,222.879C95.558,222.445 96.337,221.795 97.851,221.58C99.366,221.363 99.929,221.926 99.929,221.926C99.929,221.926 100.049,222.272 98.538,222.403C97.028,222.531 95.774,222.879 95.774,222.879Z" style="fill:rgb(68,18,17);fill-rule:nonzero;"/>
            </g>
            <g transform="matrix(1,0,0,1,14.9996,-14.9996)">
                <path d="M103.607,221.711C103.232,221.471 104.689,220.498 106.117,220.672L106.117,221.35C106.117,221.35 104.083,222.014 103.607,221.711Z" style="fill:rgb(68,18,17);fill-rule:nonzero;"/>
            </g>
            <g transform="matrix(1,0,0,1,14.9996,-14.9996)">
                <path d="M85.907,337.223C85.907,337.223 88.114,336.045 90.147,336.133C92.183,336.219 92.96,338.137 92.96,338.137L85.907,338.166L85.907,337.223Z" style="fill:rgb(214,78,39);fill-rule:nonzero;"/>
            </g>
            <g transform="matrix(1,0,0,1,14.9996,-14.9996)">
                <path d="M116.244,337.569C116.244,337.569 117.845,335.707 120.009,335.752C122.172,335.795 123.947,338.053 123.947,338.053C123.947,338.053 116.85,338.215 116.244,338.151L116.244,337.569Z" style="fill:rgb(214,78,39);fill-rule:nonzero;"/>
            </g>
            <g transform="matrix(1,0,0,1,14.9996,-14.9996)">
                <path d="M106.716,226.651C107.444,228.481 107.849,230.58 105.771,232.313C105.582,232.471 105.374,232.619 105.152,232.754C104.513,233.153 103.767,233.453 102.984,233.67C101.582,234.055 100.072,234.137 98.888,233.926C98.794,233.908 98.698,233.895 98.611,233.873C98.499,233.848 98.397,233.819 98.293,233.787C98.12,233.735 97.956,233.678 97.808,233.61C95.903,232.744 95.166,230.711 94.647,228.223C94.599,227.988 94.539,227.76 94.474,227.531C94.048,226.008 93.308,224.608 92.689,223.498C92.407,222.992 92.154,222.549 91.968,222.186C91.302,220.904 91.489,218.557 93.47,216.225L93.473,216.225L93.481,216.213C95.471,213.877 97.593,213.153 99.712,213.012C101.662,212.883 104.906,213.576 106.418,214.569C106.72,214.766 106.931,215.069 107.076,215.436C107.662,216.912 107.146,219.457 106.927,220.498C106.792,221.147 106.603,221.944 106.45,222.578C106.293,223.213 106.176,223.692 106.176,223.692C105.685,222.201 105.868,218.932 105.775,218.278C105.678,217.623 104.132,218.377 103.129,218.942C102.129,219.502 99.584,219.502 98.24,219.156C96.897,218.811 96.25,218.637 95.513,219.289C94.845,219.877 93.996,221.434 94.075,223.404L94.075,223.408C94.083,223.604 94.1,223.799 94.128,224.002C94.433,226.252 95.513,227.725 96.897,230.367C97.638,231.772 98.474,232.295 99.093,232.475L99.099,232.479C99.64,232.631 100.013,232.526 100.013,232.526C100.013,232.526 100.923,231.186 102.656,230.539C104.386,229.889 105.511,231.059 105.511,231.059C106.463,230.32 106.716,226.651 106.716,226.651Z" style="fill:rgb(89,24,19);fill-rule:nonzero;"/>
            </g>
            <g transform="matrix(1,0,0,1,14.9996,-14.9996)">
                <path d="M62.542,252.445L62.542,253.916L68.298,253.182L68.298,251.666L62.542,252.445Z" style="fill:rgb(38,59,127);fill-rule:nonzero;"/>
            </g>
            <g transform="matrix(1,0,0,1,14.9996,-14.9996)">
                <path d="M102.916,247.502L103.304,249.666C103.304,249.666 108.065,248.453 109.709,248.584L108.974,246.551C108.974,246.551 106.593,246.506 102.916,247.502Z" style="fill:rgb(214,78,39);fill-rule:nonzero;"/>
            </g>
            <g transform="matrix(1,0,0,1,14.9996,-14.9996)">
                <path d="M80.149,329.371C79.166,329.684 78.376,330.156 77.606,330.822C76.089,332.141 75.548,333.873 75.739,334.619C75.799,334.852 75.899,334.916 76.052,334.949C77.226,335.197 78.931,333.627 80.104,329.541L80.149,329.371ZM76.273,336.701C76.033,336.701 75.834,336.674 75.69,336.641C74.87,336.465 74.277,335.887 74.064,335.051C73.649,333.447 74.687,331.067 76.472,329.516C77.713,328.44 79.019,327.807 80.587,327.473C81.589,322.369 82.211,313.666 81.888,308.149C81.448,300.633 78.544,292.27 74.117,285.779C69.29,278.701 63.899,276.731 60.694,277.916C58.444,278.75 54.732,284.029 50.769,292.039C48.69,296.233 40.501,312.992 38.376,318.371C36.28,323.676 31.456,335.791 31.407,335.91C31.231,336.358 30.729,336.574 30.284,336.395C29.84,336.219 29.622,335.717 29.8,335.27C29.849,335.151 34.671,323.037 36.767,317.735C38.913,312.301 47.132,295.479 49.217,291.27C52.245,285.154 56.589,277.59 60.095,276.293C62.183,275.522 64.776,275.819 67.396,277.133C70.3,278.592 73.12,281.244 75.548,284.803C80.144,291.541 83.159,300.233 83.616,308.049C83.933,313.461 83.353,321.901 82.394,327.219C83.814,327.108 85.447,327.149 87.394,327.272C87.87,327.301 88.233,327.711 88.204,328.19C88.173,328.666 87.774,329.024 87.285,329C85.059,328.86 83.377,328.846 82.03,328.994C81.944,329.363 81.856,329.707 81.767,330.02C80.089,335.863 77.573,336.701 76.273,336.701Z" style="fill:rgb(177,80,38);fill-rule:nonzero;"/>
            </g>
            <g transform="matrix(1,0,0,1,14.9996,-14.9996)">
                <path d="M29.925,334.955C29.203,335.238 24.503,336.281 24.546,337.119C24.589,337.959 30.894,336.416 30.894,336.416L29.925,334.955Z" style="fill:rgb(171,70,62);fill-rule:nonzero;"/>
            </g>
            <g transform="matrix(1,0,0,1,14.9996,-14.9996)">
                <path d="M107.541,318.084L107.021,323.549L106.62,327.791L105.816,336.262C105.816,337.529 101.81,338.557 96.87,338.557C96.34,338.557 95.82,338.547 95.315,338.522C91.118,338.334 87.927,337.395 87.927,336.262C87.927,336.262 87.487,332.127 87.022,327.811C87.005,327.635 86.985,327.461 86.968,327.285C86.833,326.031 86.698,324.776 86.569,323.615C86.244,320.611 85.978,318.248 85.946,318.19C86.196,318.83 87.681,319.395 89.899,319.776C91.763,320.098 94.134,320.291 96.724,320.291C102.568,320.291 107.332,319.311 107.541,318.084Z" style="fill:rgb(166,221,235);fill-rule:nonzero;"/>
            </g>
            <g transform="matrix(1,0,0,1,14.9996,-14.9996)">
                <path d="M95.315,338.522C91.118,338.334 87.927,337.395 87.927,336.262C87.927,336.262 87.487,332.127 87.022,327.811C87.005,327.635 86.985,327.461 86.968,327.285C86.833,326.031 86.698,324.776 86.569,323.615C86.244,320.611 85.978,318.248 85.946,318.19C86.196,318.83 87.681,319.395 89.899,319.776C91.095,325.762 93.106,334.656 95.315,338.522Z" style="fill:rgb(102,200,206);fill-rule:nonzero;"/>
            </g>
            <g transform="matrix(1,0,0,1,14.9996,-14.9996)">
                <path d="M107.547,318C107.547,319.268 102.7,320.291 96.724,320.291C94.089,320.291 91.68,320.09 89.803,319.762C87.64,319.377 86.192,318.819 85.946,318.19L85.908,318C85.908,317.199 87.833,316.496 90.755,316.088C92.466,315.846 94.519,315.707 96.724,315.707C102.7,315.707 107.547,316.733 107.547,318Z" style="fill:rgb(230,149,72);fill-rule:nonzero;"/>
            </g>
            <g transform="matrix(1,0,0,1,14.9996,-14.9996)">
                <path d="M107.021,323.549L106.62,327.791C105.096,328.174 102.029,328.733 96.509,328.947C94.727,329.016 93.218,328.977 91.946,328.871C89.548,328.664 87.993,328.223 87.022,327.811C87.005,327.635 86.985,327.461 86.968,327.285C86.833,326.031 86.698,324.776 86.569,323.615C87.474,323.981 88.894,324.422 90.952,324.709C92.5,324.926 94.415,325.059 96.745,325.01C102.091,324.903 105.335,324.123 107.021,323.549Z" style="fill:rgb(163,214,183);fill-rule:nonzero;"/>
            </g>
            <g transform="matrix(1,0,0,1,14.9996,-14.9996)">
                <path d="M100.439,337.569C100.439,335.055 102.478,333.018 104.992,333.018C107.506,333.018 109.544,335.055 109.544,337.569C109.544,340.082 107.506,342.121 104.992,342.121C102.478,342.121 100.439,340.082 100.439,337.569Z" style="fill:rgb(112,62,62);fill-rule:nonzero;"/>
            </g>
            <g transform="matrix(1,0,0,1,14.9996,-14.9996)">
                <path d="M104.992,341.084C103.054,341.084 101.478,339.508 101.478,337.569C101.478,335.631 103.054,334.055 104.992,334.055C106.93,334.055 108.505,335.631 108.505,337.569C108.505,339.508 106.93,341.084 104.992,341.084Z" style="fill:rgb(231,130,52);fill-rule:nonzero;"/>
            </g>
            <g transform="matrix(1,0,0,1,14.9996,-14.9996)">
                <path d="M87.075,338.486C87.075,337.184 88.131,336.127 89.435,336.127C90.736,336.127 91.792,337.184 91.792,338.486C91.792,339.789 90.736,340.846 89.435,340.846C88.131,340.846 87.075,339.789 87.075,338.486Z" style="fill:rgb(112,62,62);fill-rule:nonzero;"/>
            </g>
            <g transform="matrix(1,0,0,1,14.9996,-14.9996)">
                <path d="M89.435,339.807C88.706,339.807 88.114,339.213 88.114,338.486C88.114,337.758 88.706,337.166 89.435,337.166C90.162,337.166 90.754,337.758 90.754,338.486C90.754,339.213 90.162,339.807 89.435,339.807Z" style="fill:rgb(231,130,52);fill-rule:nonzero;"/>
            </g>
            <g transform="matrix(1,0,0,1,14.9996,-14.9996)">
                <path d="M71.083,245.434C70.01,247.42 69.387,251.842 69.38,251.893L69.294,251.969L69.282,251.969L69.206,251.871C69.238,251.66 69.845,247.354 70.935,245.346L71.083,245.434Z" style="fill:rgb(96,17,18);fill-rule:nonzero;"/>
            </g>
            <g transform="matrix(1,0,0,1,14.9996,-14.9996)">
                <path d="M61.243,248.858L61.213,249.979L61.206,250.18L60.991,257.813L60.904,257.895L60.901,257.895L60.817,257.809L61.071,248.897L58.468,247.108L58.433,247.045L58.453,246.977C59.177,246.18 60.261,244.959 60.663,244.434L60.888,244.412C60.542,244.912 59.409,246.184 58.647,247.02L61.206,248.779L61.243,248.858Z" style="fill:rgb(96,17,18);fill-rule:nonzero;"/>
            </g>
            <g transform="matrix(1,0,0,1,14.9996,-14.9996)">
                <path d="M61.157,250.194L61.083,250.151L61.114,250.033L65.314,247.645L64,244.248L64.05,244.135L64.161,244.188L65.501,247.653L65.462,247.76L61.2,250.184L61.157,250.194Z" style="fill:rgb(96,17,18);fill-rule:nonzero;"/>
            </g>
            <g transform="matrix(1,0,0,1,14.9996,-14.9996)">
                <path d="M69.415,274.19C70.169,273.914 70.841,273.617 71.433,273.326C71.547,273.494 71.928,274.244 72.406,275.41C70.913,275.156 69.778,274.445 69.415,274.19ZM75.827,317.004C75.414,312.672 72.984,308.36 72.772,307.992C72.812,307.629 73.206,303.803 73.489,298.365C73.593,296.445 73.846,294.363 74.091,292.348C74.583,288.32 75.092,284.16 74.397,281.115C73.901,278.945 73.247,277.033 72.683,275.623C72.935,275.656 73.194,275.674 73.464,275.674C74.002,275.674 74.569,275.606 75.151,275.432L75.055,275.279C74.189,275.529 73.358,275.545 72.61,275.442C72.144,274.293 71.751,273.516 71.582,273.254C72.167,272.961 72.665,272.672 73.07,272.418L72.966,272.283C71.485,273.201 68.78,274.567 65.125,275.092C61.009,275.686 58.187,275.078 56.927,274.69L56.875,274.854C57.218,274.961 57.671,275.078 58.235,275.19C58.042,275.486 57.072,276.949 56.026,277.986C55.999,278.094 55.972,278.201 55.947,278.313C57.186,277.16 58.353,275.324 58.415,275.225C59.302,275.387 60.423,275.512 61.773,275.512C62.777,275.512 63.907,275.442 65.153,275.262C66.675,275.043 68.036,274.678 69.214,274.262C69.436,274.42 70.726,275.324 72.481,275.596C73.046,277 73.722,278.942 74.231,281.158C74.919,284.17 74.409,288.319 73.922,292.328C73.673,294.346 73.42,296.432 73.319,298.36C73.019,304.043 72.6,307.965 72.596,308.002L72.606,308.057C72.634,308.1 75.231,312.549 75.657,317.022C76.038,321.018 73.624,332.709 73.081,335.274L73.271,335.207C73.856,332.44 76.204,320.971 75.827,317.004Z" style="fill:rgb(166,221,235);fill-rule:nonzero;"/>
            </g>
            <g transform="matrix(1,0,0,1,14.9996,-14.9996)">
                <path d="M65.741,283.543L65.665,283.641L65.567,283.569L65.54,283.467L65.54,283.463C65.454,283.194 65.163,282.637 64.98,282.297C64.518,283.514 61.792,290.744 60.417,295.141C59.554,297.906 58.37,301.059 57.588,303.141C57.093,304.459 56.667,305.598 56.65,305.774C57.134,306.336 58.849,311.049 59.06,315.322C59.257,319.344 57.124,331.531 56.407,335.475L56.224,335.533C56.92,331.694 59.083,319.365 58.886,315.33C58.657,310.707 56.815,306.184 56.536,305.885L56.494,305.85C56.431,305.764 56.49,305.569 57.426,303.082C58.208,301 59.389,297.852 60.253,295.088C61.749,290.295 64.855,282.141 64.886,282.059L64.958,282.004L65.042,282.047C65.108,282.168 65.7,283.238 65.741,283.543Z" style="fill:rgb(166,221,235);fill-rule:nonzero;"/>
            </g>
            <g transform="matrix(1,0,0,1,14.9996,-14.9996)">
                <path d="M100.861,247.848L100.779,247.789C99.87,245.039 98.476,240.885 98.328,240.641L98.314,240.541L98.431,240.504C98.472,240.526 98.577,240.582 100.829,247.391L101.814,240.834L101.912,240.762L101.984,240.861L100.947,247.774L100.869,247.848L100.861,247.848Z" style="fill:rgb(96,17,18);fill-rule:nonzero;"/>
            </g>
            <g transform="matrix(1,0,0,1,14.9996,-14.9996)">
                <path d="M100.861,247.848L100.775,247.772L100.058,241.627L100.135,241.529L100.232,241.606L100.947,247.75L100.871,247.848L100.861,247.848Z" style="fill:rgb(96,17,18);fill-rule:nonzero;"/>
            </g>
            <g transform="matrix(1,0,0,1,14.9996,-14.9996)">
                <path d="M111.83,254.297L111.744,254.215L111.826,254.123C111.839,254.123 113.302,254.049 114.112,253.936L114.208,254.008L114.134,254.106C113.32,254.221 111.849,254.295 111.833,254.297L111.83,254.297Z" style="fill:rgb(96,17,18);fill-rule:nonzero;"/>
            </g>
            <g transform="matrix(1,0,0,1,14.9996,-14.9996)">
                <path d="M92.884,225.881C92.829,225.815 92.971,225.549 93.136,225.354C93.243,225.51 93.345,225.686 93.431,225.877C93.214,225.93 92.944,225.953 92.884,225.881ZM92.463,224.393L92.343,224.414L92.362,224.533C92.368,224.539 92.71,224.789 93.038,225.221L93.008,225.235C92.903,225.36 92.573,225.779 92.751,225.992C92.818,226.074 92.944,226.098 93.079,226.098C93.231,226.098 93.395,226.067 93.495,226.041C93.554,226.201 93.601,226.371 93.626,226.555L93.711,226.629L93.723,226.629L93.797,226.529C93.62,225.238 92.511,224.428 92.463,224.393Z" style="fill:rgb(152,50,34);fill-rule:nonzero;"/>
            </g>
            <g transform="matrix(1,0,0,1,14.9996,-14.9996)">
                <path d="M103.193,227.676C102.806,227.676 102.345,227.588 101.856,227.311L101.824,227.192L101.941,227.158C102.937,227.729 103.82,227.44 104.104,227.32C103.894,227.057 103.273,226.229 102.903,225.156C102.451,223.85 102.882,221.985 102.901,221.906L103.005,221.842L103.07,221.945C103.065,221.963 102.631,223.84 103.067,225.1C103.505,226.367 104.298,227.283 104.307,227.293L104.328,227.363L104.285,227.424C104.255,227.44 103.824,227.676 103.193,227.676Z" style="fill:rgb(152,50,34);fill-rule:nonzero;"/>
            </g>
            <g transform="matrix(1,0,0,1,14.9996,-14.9996)">
                <path d="M99.366,228.043C99.452,228.043 101.242,228.592 102.683,228.33C104.126,228.07 104.832,228.043 104.832,228.043C104.832,228.043 104.097,230.176 102.424,230.264C100.75,230.35 99.366,228.043 99.366,228.043Z" style="fill:white;fill-rule:nonzero;"/>
            </g>
            <g transform="matrix(1,0,0,1,14.9996,-14.9996)">
                <path d="M98.405,224.154C98.438,224.76 98.302,225.256 98.105,225.266C97.905,225.278 97.718,224.797 97.685,224.195C97.653,223.592 97.788,223.094 97.987,223.084C98.187,223.072 98.374,223.553 98.405,224.154Z" style="fill:rgb(96,17,18);fill-rule:nonzero;"/>
            </g>
            <g transform="matrix(1,0,0,1,14.9996,-14.9996)">
                <path d="M104.272,223.391C104.304,223.992 104.169,224.49 103.97,224.502C103.771,224.512 103.583,224.033 103.552,223.43C103.52,222.826 103.654,222.33 103.853,222.319C104.052,222.309 104.24,222.789 104.272,223.391Z" style="fill:rgb(96,17,18);fill-rule:nonzero;"/>
            </g>
            <g transform="matrix(1,0,0,1,14.9996,-14.9996)">
                <path d="M86.858,254.471L86.774,254.401L86.841,254.299C90.835,253.44 92.469,253.674 92.535,253.684L92.608,253.781L92.509,253.854C92.493,253.852 90.833,253.615 86.877,254.469L86.858,254.471Z" style="fill:rgb(96,17,18);fill-rule:nonzero;"/>
            </g>
            <g transform="matrix(1,0,0,1,14.9996,-14.9996)">
                <path d="M92.331,252.406L92.316,252.438L92.231,252.479C92.179,252.469 87.206,251.69 82.093,254.643L82.056,254.471C87.21,251.516 92.206,252.299 92.259,252.305L92.307,252.334L92.331,252.406Z" style="fill:rgb(96,17,18);fill-rule:nonzero;"/>
            </g>
            <g transform="matrix(1,0,0,1,14.9996,-14.9996)">
                <path d="M119.671,251C116.486,249.754 111.979,250.567 111.311,250.699L111.224,250.717L111.123,250.66L111.121,250.651L111.117,250.627L111.186,250.547L111.273,250.529C111.941,250.399 116.382,249.596 119.609,250.797L119.671,251Z" style="fill:rgb(96,17,18);fill-rule:nonzero;"/>
            </g>
            <g transform="matrix(1,0,0,1,14.9996,-14.9996)">
                <path d="M56.456,262.629L56.429,262.649L56.39,262.658L56.349,262.647C54.773,261.797 52.585,261.469 51.65,261.361L51.671,261.188C52.562,261.293 54.576,261.594 56.141,262.348L56.075,262.244C55.784,262.065 52.204,259.703 53.647,254.153L53.752,254.092L53.814,254.199C52.35,259.825 56.141,262.086 56.179,262.106L56.21,262.133L56.39,262.412L56.394,262.414L56.394,262.416L56.462,262.526L56.456,262.629Z" style="fill:rgb(96,17,18);fill-rule:nonzero;"/>
            </g>
            <g transform="matrix(1,0,0,1,14.9996,-14.9996)">
                <path d="M76.474,256.559C73.319,256.445 71.163,258.533 71.015,258.679L70.993,258.746L70.993,258.75C70.959,258.887 70.917,259.019 70.872,259.141L70.855,259.196C70.685,259.653 70.46,260.043 70.179,260.369L70.142,260.407L69.899,260.653C69.732,260.801 69.553,260.929 69.358,261.043C68.677,261.434 67.925,261.547 67.296,261.547C66.499,261.547 65.894,261.369 65.849,261.354L65.793,261.246L65.901,261.192C65.918,261.196 67.804,261.735 69.272,260.891C70.052,260.444 70.581,259.688 70.849,258.645L68.933,254.776L68.976,254.662L69.089,254.699L70.962,258.489C71.392,258.09 73.48,256.301 76.418,256.387L76.474,256.559Z" style="fill:rgb(96,17,18);fill-rule:nonzero;"/>
            </g>
            <g transform="matrix(1,0,0,1,14.9996,-14.9996)">
                <path d="M100.146,241.617C100.107,241.576 100.042,241.522 99.946,241.459C99.064,240.854 95.945,239.367 95.945,239.367C95.945,239.367 96.347,238.391 96.814,237.256C97.469,235.678 98.255,233.787 98.282,233.787L98.293,233.787C98.397,233.819 98.499,233.848 98.611,233.873C98.698,233.895 98.794,233.908 98.888,233.926C98.878,234.442 98.874,236.336 99.286,237.865L99.3,237.916C99.796,239.713 100.146,241.617 100.146,241.617Z" style="fill:rgb(43,145,190);fill-rule:nonzero;"/>
            </g>
            <g transform="matrix(1,0,0,1,14.9996,-14.9996)">
                <path d="M105.685,239.236C104.283,239.793 100.447,241.485 100.163,241.611C100.373,241.477 101.039,239.742 101.686,237.848C102.208,236.322 102.72,234.692 102.973,233.713L102.988,233.674L103.386,233.555L104.888,237.27L105.685,239.236Z" style="fill:rgb(43,145,190);fill-rule:nonzero;"/>
            </g>
            <g transform="matrix(1,0,0,1,14.9996,-14.9996)">
                <path d="M105.152,232.754C104.513,233.153 103.767,233.453 102.984,233.67C101.582,234.055 100.072,234.137 98.888,233.926C98.794,233.908 98.698,233.895 98.611,233.873C98.499,233.848 98.397,233.819 98.293,233.787C98.12,233.735 97.956,233.678 97.808,233.61C95.903,232.744 95.166,230.711 94.647,228.223C94.599,227.988 94.539,227.76 94.474,227.531C94.048,226.008 93.308,224.608 92.689,223.498C92.407,222.992 92.154,222.549 91.968,222.186C91.302,220.904 91.489,218.557 93.47,216.225C93.017,218.283 93.106,220.781 94.075,223.404L94.075,223.408C94.083,223.604 94.1,223.799 94.128,224.002C94.433,226.252 95.513,227.725 96.897,230.367C97.638,231.772 98.474,232.295 99.093,232.475L99.099,232.479C100.22,233.072 102.527,233.508 105.152,232.754Z" style="fill:rgb(68,18,17);fill-rule:nonzero;"/>
            </g>
            <g transform="matrix(1,0,0,1,14.9996,-14.9996)">
                <path d="M106.927,220.498C106.792,221.147 106.603,221.944 106.45,222.578C106.293,223.213 106.176,223.692 106.176,223.692C105.685,222.201 105.868,218.932 105.775,218.278C106.297,217.488 106.761,216.508 107.076,215.436C107.662,216.912 107.146,219.457 106.927,220.498Z" style="fill:rgb(68,18,17);fill-rule:nonzero;"/>
            </g>
            <g transform="matrix(1,0,0,1,14.9996,-14.9996)">
                <path d="M99.286,237.865C98.22,237.764 97.413,237.522 96.814,237.256C97.469,235.678 98.255,233.787 98.282,233.787L98.293,233.787C98.397,233.819 98.499,233.848 98.611,233.873C98.698,233.895 98.794,233.908 98.888,233.926C98.878,234.442 98.874,236.336 99.286,237.865Z" style="fill:rgb(10,78,141);fill-rule:nonzero;"/>
            </g>
            <g transform="matrix(1,0,0,1,14.9996,-14.9996)">
                <path d="M104.888,237.27C103.687,237.582 102.624,237.762 101.686,237.848C102.208,236.322 102.72,234.692 102.973,233.713L102.988,233.674L103.386,233.555L104.888,237.27Z" style="fill:rgb(10,78,141);fill-rule:nonzero;"/>
            </g>
            <g transform="matrix(1,0,0,1,14.9996,-14.9996)">
                <path d="M89.803,319.762C87.64,319.377 86.192,318.819 85.946,318.19L85.908,318C85.908,317.199 87.833,316.496 90.755,316.088C89.759,317.344 89.679,318.733 89.803,319.762Z" style="fill:rgb(210,131,59);fill-rule:nonzero;"/>
            </g>
            <g transform="matrix(1,0,0,1,14.9996,-14.9996)">
                <path d="M88.763,317.869L88.567,317.832C88.302,317.723 88.174,317.42 88.282,317.154L90.101,312.697C90.175,312.51 90.352,312.385 90.552,312.375L102.237,311.725C102.467,311.715 102.693,311.863 102.763,312.09L104.19,316.766C104.274,317.039 104.12,317.33 103.845,317.414C103.571,317.498 103.281,317.344 103.197,317.07L101.888,312.785L90.938,313.395L89.243,317.547C89.161,317.748 88.968,317.869 88.763,317.869Z" style="fill:rgb(212,89,39);fill-rule:nonzero;"/>
            </g>
            <g transform="matrix(1,0,0,1,14.9996,-14.9996)">
                <path d="M78.642,263.654C78.582,263.93 78.097,265.002 77.28,266.34C76.314,267.926 74.884,269.883 73.144,271.317C69.944,273.953 64.532,276.029 64.532,276.029C64.36,277.242 63.321,278.801 62.847,278.758L62.771,278.742C62.403,278.602 62.674,277.721 62.674,277.721C62.674,277.721 61.763,279.451 61.243,279.369C60.749,279.289 61.511,277.746 61.583,277.598C60.974,278.424 59.903,279.623 59.558,279.319C59.212,279.014 60.984,276.072 60.984,276.072C60.984,276.072 59.687,276.938 59.427,276.764C59.167,276.592 59.946,275.772 60.724,274.992C61.503,274.215 63.192,274.041 63.581,273.994C63.968,273.953 65.657,272.135 67.867,269.625L67.968,269.512L67.972,269.508C70.165,266.99 73.144,263.047 73.144,263.047C72.929,262.743 71.329,259.412 71.329,259.412C71.329,259.412 71.522,259.233 72.024,258.938C72.44,258.696 73.064,258.377 73.968,258.029C75.958,257.25 76.778,257.551 76.778,257.551C77.215,258.069 78.772,263.047 78.642,263.654Z" style="fill:rgb(241,181,171);fill-rule:nonzero;"/>
            </g>
            <g transform="matrix(1,0,0,1,14.9996,-14.9996)">
                <path d="M73.753,263.307C73.753,263.307 70.544,267.192 67.972,269.508C70.165,266.99 73.144,263.047 73.144,263.047C72.929,262.743 71.329,259.412 71.329,259.412C71.329,259.412 71.522,259.233 72.024,258.938C73.345,261.008 73.708,262.598 73.753,263.307Z" style="fill:rgb(245,148,141);fill-rule:nonzero;"/>
            </g>
            <g transform="matrix(1,0,0,1,14.9996,-14.9996)">
                <path d="M77.28,266.34C76.314,267.926 74.884,269.883 73.144,271.317C69.944,273.953 64.532,276.029 64.532,276.029C64.36,277.242 63.321,278.801 62.847,278.758L62.771,278.742C63.56,277.445 64.165,275.598 64.165,275.598C64.165,275.598 67.476,274.168 71.412,271.486C74.106,269.651 76.193,267.592 77.28,266.34Z" style="fill:rgb(245,148,141);fill-rule:nonzero;"/>
            </g>
            <g transform="matrix(1,0,0,1,14.9996,-14.9996)">
                <path d="M109.396,262.861C108.787,263.278 102.492,266.709 96.855,267.41C90.929,268.147 87.985,268.231 85.991,265.807C84.005,263.383 82.446,256.069 82.446,256.069C82.446,256.069 82.755,255.651 84.326,255.094C84.718,256.933 85.704,262.92 88.935,265.375C88.935,265.375 94.737,266.674 99.605,265.375C103.174,264.424 106.221,262.844 107.592,262.072C108.201,262.351 108.811,262.619 109.396,262.861Z" style="fill:rgb(245,148,141);fill-rule:nonzero;"/>
            </g>
            <g transform="matrix(1,0,0,1,14.9996,-14.9996)">
                <path d="M92.05,261.826L92.054,261.826L92.054,261.83L92.05,261.826Z" style="fill:rgb(245,148,141);fill-rule:nonzero;"/>
            </g>
            <g transform="matrix(1,0,0,1,14.9996,-14.9996)">
                <path d="M122.029,261.422C121.988,262.451 121.751,263.307 121.222,263.858C119.436,265.727 116.054,264.901 113.003,264.084C112.726,264.008 112.449,263.932 112.175,263.858C111.394,263.651 110.427,263.295 109.396,262.861C106.156,261.511 102.237,259.442 101.125,258.981L101.123,258.977L101.111,258.976C99.653,258.375 98.022,258.373 98.022,258.373C98.022,258.373 95.384,259.358 93.435,259.319C92.923,259.308 92.612,259.133 92.435,258.881C93.421,258.7 95.378,258.295 96.295,257.758C97.548,257.026 98.76,256.762 99.366,256.852C99.972,256.934 103.781,258.843 111.439,260.658C117.054,261.989 120.201,262.035 122.029,261.422Z" style="fill:rgb(245,148,141);fill-rule:nonzero;"/>
            </g>
            <g transform="matrix(1,0,0,1,14.9996,-14.9996)">
                <path d="M113.748,253.979L111.826,254.123L111.812,254.088L111.812,254.08L111.484,251.83C111.484,251.83 112.453,251.686 113.734,251.584C113.699,252.83 113.748,253.979 113.748,253.979Z" style="fill:rgb(245,148,141);fill-rule:nonzero;"/>
            </g>
            <g transform="matrix(1,0,0,1,14.9996,-14.9996)">
                <path d="M110.055,263.219L110.025,263.213C108.833,262.774 104.716,260.804 101.47,259.229C99.545,258.293 98.845,258.42 97.874,258.598C97.714,258.625 97.546,258.658 97.364,258.687C96.933,258.75 96.486,258.897 96.013,259.051C95.097,259.351 94.148,259.66 93.238,259.391C92.745,259.24 92.411,259.004 92.247,258.683C92.048,258.291 92.171,257.925 92.177,257.91C92.177,257.895 92.273,257.129 92.655,256.502C92.632,256.225 92.466,254.217 92.454,254.028C92.45,253.977 92.106,248.936 91.233,245.926L91.292,245.819L91.399,245.875C92.278,248.908 92.624,253.967 92.627,254.016C92.64,254.213 92.829,256.492 92.831,256.514L92.817,256.569C92.442,257.17 92.346,257.94 92.345,257.947C92.34,257.969 92.236,258.282 92.401,258.606C92.546,258.883 92.843,259.09 93.287,259.223C94.147,259.479 95.069,259.179 95.96,258.887C96.44,258.729 96.894,258.582 97.339,258.515C97.519,258.486 97.685,258.457 97.845,258.429C98.846,258.243 99.569,258.111 101.546,259.072C104.787,260.647 108.9,262.614 110.085,263.051L110.137,263.16L110.055,263.219Z" style="fill:rgb(96,17,18);fill-rule:nonzero;"/>
            </g>
            <g transform="matrix(1,0,0,1,14.9996,-14.9996)">
                <path d="M120.018,252.125C119.998,252.119 119.896,252.088 119.73,252.039L119.621,252.004C119.347,251.918 119.01,251.83 118.601,251.758L118.425,251.729C117.875,251.643 117.213,251.578 116.431,251.578L116.393,251.578C113.554,251.584 111.519,251.91 111.498,251.914L111.494,251.914L111.4,251.852C111.318,251.529 111.224,251.121 111.123,250.66L111.117,250.627C110.604,248.223 109.97,244.444 109.97,244.344L110.053,244.256L110.144,244.344C110.15,244.467 110.76,248.127 111.273,250.529L111.311,250.699C111.394,251.092 111.476,251.44 111.548,251.733C111.947,251.672 113.852,251.41 116.393,251.406L116.431,251.406C118.179,251.406 119.322,251.699 119.958,251.932C119.994,252.049 120.014,252.119 120.018,252.125Z" style="fill:rgb(96,17,18);fill-rule:nonzero;"/>
            </g>
            <g transform="matrix(1,0,0,1,14.9996,-14.9996)">
                <path d="M64.101,243.328L64.101,243.354C64.013,244.354 64.273,245.002 63.581,246.299C62.888,247.6 61.809,248.985 61.157,248.854C60.507,248.723 60.771,245.951 60.904,244.828C60.953,244.418 60.839,243.899 60.673,243.412C60.493,242.881 60.253,242.383 60.097,242.086L60.25,242.061C61.712,241.768 63.169,240.506 64.11,239.238C64.132,240.235 64.165,242.531 64.101,243.328Z" style="fill:rgb(241,181,171);fill-rule:nonzero;"/>
            </g>
            <g transform="matrix(1,0,0,1,14.9996,-14.9996)">
                <path d="M64.101,243.328C62.847,243.799 61.489,243.608 60.673,243.412C60.493,242.881 60.253,242.383 60.097,242.086L60.25,242.061C61.712,241.768 63.169,240.506 64.11,239.238C64.132,240.235 64.165,242.531 64.101,243.328Z" style="fill:rgb(245,148,141);fill-rule:nonzero;"/>
            </g>
            <g transform="matrix(1,0,0,1,14.9996,-14.9996)">
                <path d="M102.984,233.67L102.973,233.713C102.767,234.522 102.378,235.779 101.956,237.051C101.214,239.281 100.364,241.57 100.146,241.617C100.146,241.617 99.796,239.713 99.3,237.916C99.245,237.721 99.196,237.516 99.154,237.309C98.874,235.903 98.878,234.381 98.888,233.926C100.072,234.137 101.582,234.055 102.984,233.67Z" style="fill:rgb(241,181,171);fill-rule:nonzero;"/>
            </g>
            <g transform="matrix(1,0,0,1,14.9996,-14.9996)">
                <path d="M102.984,233.67L102.973,233.713C102.767,234.522 102.378,235.779 101.956,237.051C100.771,237.373 99.788,237.356 99.154,237.309C98.874,235.903 98.878,234.381 98.888,233.926C100.072,234.137 101.582,234.055 102.984,233.67Z" style="fill:rgb(245,148,141);fill-rule:nonzero;"/>
            </g>
            <g transform="matrix(1,0,0,1,14.9996,-14.9996)">
                <path d="M73.093,240.633C72.271,241.067 71.43,241.201 70.653,241.098C69.067,240.899 67.757,239.723 67.452,238.133C66.997,235.766 67.634,231.719 67.499,230.651C67.361,229.58 67.218,229.627 66.745,229.58C66.745,229.58 65.865,228.139 65.948,227.262C65.956,227.203 65.948,226.658 66.155,226.031C66.458,225.119 67.218,224.029 69.136,224.029C72.365,224.029 73.868,227.486 73.638,230.217C73.409,232.945 71.685,236.449 72.317,237.133C72.958,237.817 74.458,237.174 74.777,236.494C74.777,236.494 75.593,239.315 73.093,240.633Z" style="fill:rgb(208,65,43);fill-rule:nonzero;"/>
            </g>
            <g transform="matrix(1,0,0,1,14.9996,-14.9996)">
                <path d="M70.653,241.098C69.067,240.899 67.757,239.723 67.452,238.133C66.997,235.766 67.634,231.719 67.499,230.651C67.361,229.58 67.218,229.627 66.745,229.58C66.745,229.58 65.865,228.139 65.948,227.262C65.956,227.203 65.948,226.658 66.155,226.031C67.946,225.463 70.075,225.699 69.999,229.307C69.907,233.555 68.176,235.869 69.042,238.399C69.439,239.545 70.075,240.449 70.653,241.098Z" style="fill:rgb(192,44,38);fill-rule:nonzero;"/>
            </g>
            <g transform="matrix(1,0,0,1,14.9996,-14.9996)">
                <path d="M68.132,235.949C67.634,237.133 65.632,238.315 65.632,238.315C65.468,238.846 65.118,239.49 64.642,240.127C64.439,240.401 64.212,240.674 63.97,240.938C63.022,241.961 61.803,242.846 60.585,243.094L60.423,243.117C58.218,243.504 56.323,242.713 55.077,240.317C53.804,237.86 53.986,232.174 54.622,231.447C57.808,232.037 61.021,230.824 62.022,230.551C63.022,230.279 63.219,230.582 64.128,231.854C64.292,232.084 64.448,232.365 64.591,232.67L64.591,232.674C65.235,234.045 65.632,235.903 65.632,235.903C65.632,235.49 66.134,234.766 66.708,234.266C67.019,233.994 67.347,233.783 67.634,233.719C68.452,233.535 68.634,234.766 68.132,235.949Z" style="fill:rgb(241,181,171);fill-rule:nonzero;"/>
            </g>
            <g transform="matrix(1,0,0,1,14.9996,-14.9996)">
                <path d="M68.132,235.949C67.634,237.133 65.632,238.315 65.632,238.315C65.468,238.846 65.118,239.49 64.642,240.127C64.439,240.401 64.212,240.674 63.97,240.938C65.213,238.166 64.843,234.338 64.591,232.674C65.235,234.045 65.632,235.903 65.632,235.903C65.632,235.49 66.134,234.766 66.708,234.266C67.019,233.994 67.347,233.783 67.634,233.719C68.452,233.535 68.634,234.766 68.132,235.949Z" style="fill:rgb(245,148,141);fill-rule:nonzero;"/>
            </g>
            <g transform="matrix(1,0,0,1,14.9996,-14.9996)">
                <path d="M66.937,227.184C66.202,226.94 65.512,227.389 65.248,227.711C65.612,228.395 65.908,229.168 66.138,229.951C68.284,229.486 67.921,227.512 66.937,227.184Z" style="fill:rgb(38,59,127);fill-rule:nonzero;"/>
            </g>
            <g transform="matrix(1,0,0,1,14.9996,-14.9996)">
                <path d="M66.708,234.266C66.134,234.766 65.632,235.49 65.632,235.903C65.632,235.903 65.355,234.606 64.886,233.381C64.671,232.811 64.416,232.258 64.128,231.854C63.219,230.582 63.022,230.279 62.022,230.551C61.021,230.824 57.808,232.037 54.622,231.447C53.717,231.278 53.411,229.854 54.132,228.67C54.849,227.486 60.173,224.758 62.993,225.529C63.925,225.787 64.671,226.631 65.246,227.709L65.282,227.779C65.632,228.444 65.916,229.194 66.138,229.951C66.644,231.686 66.829,233.445 66.708,234.266Z" style="fill:rgb(208,65,43);fill-rule:nonzero;"/>
            </g>
            <g transform="matrix(1,0,0,1,14.9996,-14.9996)">
                <path d="M66.433,236.315C66.312,236.432 66.149,236.381 66.061,236.34C66.167,236.098 66.308,235.861 66.448,235.654C66.507,235.906 66.54,236.213 66.433,236.315ZM66.937,234.881L66.808,234.889C66.769,234.932 65.847,235.963 65.724,236.822L65.801,236.926L65.814,236.926L65.904,236.85C65.919,236.738 65.951,236.623 65.993,236.508C66.066,236.539 66.157,236.567 66.251,236.567C66.356,236.567 66.466,236.537 66.56,236.445C66.794,236.221 66.638,235.637 66.583,235.461C66.778,235.195 66.939,235.014 66.942,235.008L66.937,234.881Z" style="fill:rgb(152,50,34);fill-rule:nonzero;"/>
            </g>
            <g transform="matrix(1,0,0,1,14.9996,-14.9996)">
                <path d="M57.385,239.729C56.981,239.729 56.655,239.717 56.652,239.717L56.579,239.676L56.568,239.596L57.933,235.6L58.048,235.541L58.106,235.656C58.079,235.738 57.003,238.887 56.78,239.539C57.015,239.543 57.544,239.553 58.017,239.533C58.302,239.524 58.427,239.447 58.483,239.387L58.534,239.274L58.62,239.178L58.717,239.26C58.718,239.274 58.726,239.389 58.624,239.504C58.511,239.635 58.308,239.705 58.022,239.717C57.811,239.727 57.588,239.729 57.385,239.729Z" style="fill:rgb(152,50,34);fill-rule:nonzero;"/>
            </g>
            <g transform="matrix(1,0,0,1,14.9996,-14.9996)">
                <path d="M58.079,240.953C58.079,240.953 59.065,241.135 60.149,240.772C61.233,240.408 61.962,240.129 61.962,240.129C61.962,240.129 61.052,241.651 59.747,241.924C58.444,242.197 58.079,240.953 58.079,240.953Z" style="fill:white;fill-rule:nonzero;"/>
            </g>
            <g transform="matrix(1,0,0,1,14.9996,-14.9996)">
                <path d="M60.021,234.494C59.96,234.279 60.749,233.432 61.78,233.371C62.812,233.311 63.778,233.932 63.778,233.932C63.778,233.932 62.478,233.887 61.537,234.069C60.598,234.252 60.021,234.494 60.021,234.494Z" style="fill:rgb(208,65,43);fill-rule:nonzero;"/>
            </g>
            <g transform="matrix(1,0,0,1,14.9996,-14.9996)">
                <path d="M57.64,234.908C57.64,234.908 57.14,234.235 56.261,234.1C55.382,233.963 54.743,234.504 54.743,234.504C54.743,234.504 55.245,234.707 56.192,234.738C57.14,234.774 57.64,234.908 57.64,234.908Z" style="fill:rgb(208,65,43);fill-rule:nonzero;"/>
            </g>
            <g transform="matrix(1,0,0,1,14.9996,-14.9996)">
                <path d="M57.136,236.182C57.075,236.643 56.856,236.996 56.649,236.967C56.442,236.94 56.323,236.541 56.386,236.08C56.446,235.617 56.665,235.268 56.873,235.293C57.08,235.322 57.198,235.719 57.136,236.182Z" style="fill:rgb(96,17,18);fill-rule:nonzero;"/>
            </g>
            <g transform="matrix(1,0,0,1,14.9996,-14.9996)">
                <path d="M62.339,235.613C62.276,236.076 62.058,236.428 61.851,236.401C61.643,236.373 61.524,235.977 61.587,235.514C61.648,235.053 61.866,234.699 62.074,234.729C62.281,234.754 62.399,235.153 62.339,235.613Z" style="fill:rgb(96,17,18);fill-rule:nonzero;"/>
            </g>
            <g transform="matrix(1,0,0,1,14.9996,-14.9996)">
                <path d="M66.708,234.266C66.134,234.766 65.632,235.49 65.632,235.903C65.632,235.903 65.355,234.606 64.886,233.381C65.265,231.486 65.3,229.154 65.282,227.779C65.632,228.444 65.916,229.194 66.138,229.951C66.644,231.686 66.829,233.445 66.708,234.266Z" style="fill:rgb(192,44,38);fill-rule:nonzero;"/>
            </g>
            <g transform="matrix(1,0,0,1,14.9996,-14.9996)">
                <path d="M91.946,328.871C89.548,328.664 87.993,328.223 87.022,327.811C87.005,327.635 86.985,327.461 86.968,327.285C86.833,326.031 86.698,324.776 86.569,323.615C87.474,323.981 88.894,324.422 90.952,324.709C91.213,325.838 91.618,327.572 91.946,328.871Z" style="fill:rgb(137,192,156);fill-rule:nonzero;"/>
            </g>
        </g>
        <g transform="matrix(0.0316361,0,0,0.0316361,1548.11,351.631)">
            <g transform="matrix(1,0,0,1,-379.115,-24.7111)">
                <g transform="matrix(1.00195,0,0,1,-273.303,500.586)">
                    <circle cx="1070.75" cy="945.928" r="192.497" style="fill:rgb(187,208,51);"/>
                </g>
                <g transform="matrix(1.01394,0,0,1.01107,135.232,489.866)">
                    <path d="M811.163,894.389C838.982,1011.87 757.557,1123.29 624.256,1117.23C554.442,1114.06 462.846,1013.83 463.897,948.988C467.196,745.321 711.305,707.675 782.886,804.244C782.886,804.244 512.623,941.126 656.394,1088.64C816.893,1069.75 811.163,894.389 811.163,894.389Z" style="fill:white;"/>
                </g>
                <g transform="matrix(1,0,0,1,385.872,294.17)">
                    <path d="M301.137,1140.54L236.058,1152.04C255.542,953.097 483.58,1024.69 459.771,887.681C538.997,996.487 306.454,1055.57 301.137,1140.54Z" style="fill:url(#_Radial1);"/>
                </g>
                <g transform="matrix(1,0,0,1.11931,377.049,110.197)">
                    <path d="M239.801,1205.93C266.568,1134.87 321.897,1120.46 309.96,1188.94L239.801,1205.93Z" style="fill:white;"/>
                </g>
                <g transform="matrix(0.99736,0.072621,-0.072621,0.99736,423.089,182.364)">
                    <path d="M468.952,1383.56C190.405,1174.85 633.863,1114.78 504.725,953.722C706.724,1121.01 268.655,1148.92 468.952,1383.56Z" style="fill:url(#_Radial2);"/>
                </g>
                <g transform="matrix(0.572947,-0.713836,0.433722,0.348118,128.876,1288.04)">
                    <ellipse cx="346.765" cy="1142.17" rx="73.119" ry="48.295" style="fill:url(#_Linear3);"/>
                </g>
                <g transform="matrix(1,0,0,1,-83.3876,-148.627)">
                    <circle cx="839.445" cy="1390.03" r="31.469" style="fill:rgb(83,139,191);"/>
                </g>
            </g>
            <g transform="matrix(0.630368,0,0,0.630368,99.1182,829.093)">
                <g transform="matrix(1,0,0,1,-50.9172,24.2274)">
                    <g transform="matrix(5.36899,-6.27981e-15,0,6.13194,-4006.24,-3622.63)">
                        <text x="1032.39px" y="753.781px" style="font-family:'AppleSDGothicNeo-Bold', 'Apple SD Gothic Neo';font-weight:700;font-size:53.925px;fill:rgb(239,127,45);">E<tspan x="1061.18px 1091.4px 1123.86px " y="753.781px 753.781px 753.781px ">RVE</tspan></text>
                    </g>
                    <g transform="matrix(6.71821,8.75679e-14,0,7.59803,-5562.27,-4720.55)">
                        <text x="1032.39px" y="753.781px" style="font-family:'AppleSDGothicNeo-Bold', 'Apple SD Gothic Neo';font-weight:700;font-size:53.925px;fill:rgb(239,127,45);">S</text>
                    </g>
                </g>
                <g transform="matrix(1,0,0,1,-50.9172,24.2274)">
                    <g transform="matrix(5.55211,0,0,6.34108,-4560.8,-3779.82)">
                        <text x="1032.39px" y="753.781px" style="font-family:'AppleSDGothicNeo-Bold', 'Apple SD Gothic Neo';font-weight:700;font-size:53.925px;fill:rgb(164,199,55);">E</text>
                    </g>
                    <g transform="matrix(6.96004,0,0,7.71776,-6327.87,-4810.62)">
                        <text x="1032.39px" y="753.781px" style="font-family:'AppleSDGothicNeo-Bold', 'Apple SD Gothic Neo';font-weight:700;font-size:53.925px;fill:rgb(164,199,55);">W</text>
                    </g>
                </g>
                <g transform="matrix(0.886429,0,0,0.967451,49.8024,33.3302)">
                    <g transform="matrix(30.2865,0,0,34.5903,-33271.6,-61823.3)">
                        <text x="1126.77px" y="1822.79px" style="font-family:'AppleSDGothicNeo-Bold', 'Apple SD Gothic Neo';font-weight:700;font-size:7.061px;fill:rgb(64,129,183);">C<tspan x="1130.62px 1132.15px 1135.62px 1138.9px 1142.62px 1144.16px 1147.88px " y="1822.79px 1822.79px 1822.79px 1822.79px 1822.79px 1822.79px 1822.79px ">leaning</tspan></text>
                    </g>
                    <g transform="matrix(30.2865,0,0,34.5903,-32503.3,-61810.1)">
                        <text x="1126.77px" y="1822.79px" style="font-family:'AppleSDGothicNeo-Bold', 'Apple SD Gothic Neo';font-weight:700;font-size:7.061px;fill:rgb(64,129,183);">S<tspan x="1130.24px 1133.7px 1136.16px 1139.63px 1141.17px 1144.19px 1147.66px " y="1822.79px 1822.79px 1822.79px 1822.79px 1822.79px 1822.79px 1822.79px ">ervices</tspan></text>
                    </g>
                </g>
            </g>
        </g>
        <g transform="matrix(0.0340344,0,0,0.0340344,1771.6,311.403)">
            <g transform="matrix(1,0,0,1,-379.115,-24.7111)">
                <g transform="matrix(1.00195,0,0,1,-273.303,500.586)">
                    <circle cx="1070.75" cy="945.928" r="192.497" style="fill:rgb(187,208,51);"/>
                </g>
                <g transform="matrix(1.01394,0,0,1.01107,135.232,489.866)">
                    <path d="M811.163,894.389C838.982,1011.87 757.557,1123.29 624.256,1117.23C554.442,1114.06 462.846,1013.83 463.897,948.988C467.196,745.321 711.305,707.675 782.886,804.244C782.886,804.244 512.623,941.126 656.394,1088.64C816.893,1069.75 811.163,894.389 811.163,894.389Z" style="fill:white;"/>
                </g>
                <g transform="matrix(1,0,0,1,385.872,294.17)">
                    <path d="M301.137,1140.54L236.058,1152.04C255.542,953.097 483.58,1024.69 459.771,887.681C538.997,996.487 306.454,1055.57 301.137,1140.54Z" style="fill:url(#_Radial4);"/>
                </g>
                <g transform="matrix(1,0,0,1.11931,377.049,110.197)">
                    <path d="M239.801,1205.93C266.568,1134.87 321.897,1120.46 309.96,1188.94L239.801,1205.93Z" style="fill:white;"/>
                </g>
                <g transform="matrix(0.99736,0.072621,-0.072621,0.99736,423.089,182.364)">
                    <path d="M468.952,1383.56C190.405,1174.85 633.863,1114.78 504.725,953.722C706.724,1121.01 268.655,1148.92 468.952,1383.56Z" style="fill:url(#_Radial5);"/>
                </g>
                <g transform="matrix(0.572947,-0.713836,0.433722,0.348118,128.876,1288.04)">
                    <ellipse cx="346.765" cy="1142.17" rx="73.119" ry="48.295" style="fill:url(#_Linear6);"/>
                </g>
                <g transform="matrix(1,0,0,1,-83.3876,-148.627)">
                    <circle cx="839.445" cy="1390.03" r="31.469" style="fill:rgb(83,139,191);"/>
                </g>
            </g>
            <g transform="matrix(0.630368,0,0,0.630368,99.1182,829.093)">
                <g transform="matrix(1,0,0,1,-50.9172,24.2274)">
                    <g transform="matrix(5.36899,-6.27981e-15,0,6.13194,-4006.24,-3622.63)">
                        <text x="1032.39px" y="753.781px" style="font-family:'AppleSDGothicNeo-Bold', 'Apple SD Gothic Neo';font-weight:700;font-size:53.925px;fill:rgb(239,127,45);">E<tspan x="1061.18px 1091.4px 1123.86px " y="753.781px 753.781px 753.781px ">RVE</tspan></text>
                    </g>
                    <g transform="matrix(6.71821,8.75679e-14,0,7.59803,-5562.27,-4720.55)">
                        <text x="1032.39px" y="753.781px" style="font-family:'AppleSDGothicNeo-Bold', 'Apple SD Gothic Neo';font-weight:700;font-size:53.925px;fill:rgb(239,127,45);">S</text>
                    </g>
                </g>
                <g transform="matrix(1,0,0,1,-50.9172,24.2274)">
                    <g transform="matrix(5.55211,0,0,6.34108,-4560.8,-3779.82)">
                        <text x="1032.39px" y="753.781px" style="font-family:'AppleSDGothicNeo-Bold', 'Apple SD Gothic Neo';font-weight:700;font-size:53.925px;fill:rgb(164,199,55);">E</text>
                    </g>
                    <g transform="matrix(6.96004,0,0,7.71776,-6327.87,-4810.62)">
                        <text x="1032.39px" y="753.781px" style="font-family:'AppleSDGothicNeo-Bold', 'Apple SD Gothic Neo';font-weight:700;font-size:53.925px;fill:rgb(164,199,55);">W</text>
                    </g>
                </g>
                <g transform="matrix(0.886429,0,0,0.967451,49.8024,33.3302)">
                    <g transform="matrix(30.2865,0,0,34.5903,-33271.6,-61823.3)">
                        <text x="1126.77px" y="1822.79px" style="font-family:'AppleSDGothicNeo-Bold', 'Apple SD Gothic Neo';font-weight:700;font-size:7.061px;fill:rgb(64,129,183);">C<tspan x="1130.62px 1132.15px 1135.62px 1138.9px 1142.62px 1144.16px 1147.88px " y="1822.79px 1822.79px 1822.79px 1822.79px 1822.79px 1822.79px 1822.79px ">leaning</tspan></text>
                    </g>
                    <g transform="matrix(30.2865,0,0,34.5903,-32503.3,-61810.1)">
                        <text x="1126.77px" y="1822.79px" style="font-family:'AppleSDGothicNeo-Bold', 'Apple SD Gothic Neo';font-weight:700;font-size:7.061px;fill:rgb(64,129,183);">S<tspan x="1130.24px 1133.7px 1136.16px 1139.63px 1141.17px 1144.19px 1147.66px " y="1822.79px 1822.79px 1822.79px 1822.79px 1822.79px 1822.79px 1822.79px ">ervices</tspan></text>
                    </g>
                </g>
            </g>
        </g>
    </g>
    <defs>
        <radialGradient id="_Radial1" cx="0" cy="0" r="1" gradientUnits="userSpaceOnUse" gradientTransform="matrix(219.428,-6.98037e-11,6.98037e-11,219.428,359.828,1018.89)"><stop offset="0" style="stop-color:rgb(85,184,221);stop-opacity:1"/><stop offset="0.17" style="stop-color:rgb(84,164,207);stop-opacity:1"/><stop offset="0.37" style="stop-color:rgb(83,146,195);stop-opacity:1"/><stop offset="1" style="stop-color:rgb(83,139,190);stop-opacity:1"/></radialGradient>
        <radialGradient id="_Radial2" cx="0" cy="0" r="1" gradientUnits="userSpaceOnUse" gradientTransform="matrix(148.572,7.55975,-7.55975,148.572,460.696,1143.32)"><stop offset="0" style="stop-color:rgb(115,179,191);stop-opacity:1"/><stop offset="0.47" style="stop-color:rgb(90,148,190);stop-opacity:1"/><stop offset="1" style="stop-color:rgb(83,139,190);stop-opacity:1"/></radialGradient>
        <linearGradient id="_Linear3" x1="0" y1="0" x2="1" y2="0" gradientUnits="userSpaceOnUse" gradientTransform="matrix(-5.38355,253.124,-153.796,-8.86045,348.257,1085.01)"><stop offset="0" style="stop-color:white;stop-opacity:1"/><stop offset="0.18" style="stop-color:rgb(217,231,168);stop-opacity:1"/><stop offset="0.38" style="stop-color:rgb(182,209,88);stop-opacity:1"/><stop offset="1" style="stop-color:rgb(168,200,55);stop-opacity:1"/></linearGradient>
        <radialGradient id="_Radial4" cx="0" cy="0" r="1" gradientUnits="userSpaceOnUse" gradientTransform="matrix(219.428,-6.98037e-11,6.98037e-11,219.428,359.828,1018.89)"><stop offset="0" style="stop-color:rgb(85,184,221);stop-opacity:1"/><stop offset="0.17" style="stop-color:rgb(84,164,207);stop-opacity:1"/><stop offset="0.37" style="stop-color:rgb(83,146,195);stop-opacity:1"/><stop offset="1" style="stop-color:rgb(83,139,190);stop-opacity:1"/></radialGradient>
        <radialGradient id="_Radial5" cx="0" cy="0" r="1" gradientUnits="userSpaceOnUse" gradientTransform="matrix(148.572,7.55975,-7.55975,148.572,460.696,1143.32)"><stop offset="0" style="stop-color:rgb(115,179,191);stop-opacity:1"/><stop offset="0.47" style="stop-color:rgb(90,148,190);stop-opacity:1"/><stop offset="1" style="stop-color:rgb(83,139,190);stop-opacity:1"/></radialGradient>
        <linearGradient id="_Linear6" x1="0" y1="0" x2="1" y2="0" gradientUnits="userSpaceOnUse" gradientTransform="matrix(-5.38355,253.124,-153.796,-8.86045,348.257,1085.01)"><stop offset="0" style="stop-color:white;stop-opacity:1"/><stop offset="0.18" style="stop-color:rgb(217,231,168);stop-opacity:1"/><stop offset="0.38" style="stop-color:rgb(182,209,88);stop-opacity:1"/><stop offset="1" style="stop-color:rgb(168,200,55);stop-opacity:1"/></linearGradient>
    </defs>
</svg>
